<svg xmlns="http://www.w3.org/2000/svg" viewBox="0 0 391.61 68.28"><defs><style>.cls-1{fill:#4056f4;}</style></defs><title>logo-classic</title><g id="Layer_2" data-name="Layer 2"><g id="Layer_1-2" data-name="Layer 1"><path class="cls-1" d="M97,6H108.1v47.8H97Z"/><path class="cls-1" d="M152,20.59q4.2,4.1,4.2,12.16v21H145.59V34.39q0-4.38-1.91-6.52a7,7,0,0,0-5.54-2.15,8.5,8.5,0,0,0-6.42,2.49q-2.39,2.49-2.38,7.41V53.78H118.68V17h10.18v4.3a14.13,14.13,0,0,1,5.26-3.58A18.32,18.32,0,0,1,141,16.5Q147.84,16.5,152,20.59Z"/><path class="cls-1" d="M181.64,39.37l-5.12,5.05v9.36H165.87V3.11h10.65V31.79L192.09,17h12.7l-15.3,15.57,16.66,21.17h-12.9Z"/><path class="cls-1" d="M216.43,51.9a18,18,0,0,1-7.2-6.72,18.56,18.56,0,0,1-2.6-9.77,18.53,18.53,0,0,1,2.6-9.76,18.05,18.05,0,0,1,7.2-6.73,23.54,23.54,0,0,1,20.79,0,18.1,18.1,0,0,1,7.17,6.73,18.53,18.53,0,0,1,2.6,9.76,18.56,18.56,0,0,1-2.6,9.77,18.08,18.08,0,0,1-7.17,6.72,23.45,23.45,0,0,1-20.79,0Zm17.14-9.08a10.31,10.31,0,0,0,2.63-7.41A10.34,10.34,0,0,0,233.57,28a8.87,8.87,0,0,0-6.73-2.76A9,9,0,0,0,220.08,28a10.27,10.27,0,0,0-2.66,7.41,10.24,10.24,0,0,0,2.66,7.41,9,9,0,0,0,6.76,2.77A8.88,8.88,0,0,0,233.57,42.82Z"/><path class="cls-1" d="M287.45,20.59q4.2,4.1,4.2,12.16v21H281V34.39q0-4.38-1.91-6.52a7,7,0,0,0-5.53-2.15,8.47,8.47,0,0,0-6.42,2.49q-2.38,2.49-2.39,7.41V53.78H254.09V17h10.17v4.3a14.21,14.21,0,0,1,5.26-3.58,18.34,18.34,0,0,1,6.9-1.26Q283.25,16.5,287.45,20.59Z"/><path class="cls-1" d="M313,17.86h9.42v8.2h-9.15V53.78H302.57V26.06H296.9v-8.2h5.67V16.22q0-6.27,3.72-10t10.48-3.68a19.55,19.55,0,0,1,4.54.51,11,11,0,0,1,3.59,1.47l-2.8,7.71A7.31,7.31,0,0,0,317.8,11c-3.24,0-4.85,1.77-4.85,5.32Zm20.76-7.64A5.55,5.55,0,0,1,331.86,6a5.54,5.54,0,0,1,1.85-4.23A6.75,6.75,0,0,1,338.49,0a7,7,0,0,1,4.78,1.64,5.25,5.25,0,0,1,1.84,4.1,5.79,5.79,0,0,1-1.84,4.4,6.69,6.69,0,0,1-4.78,1.74A6.79,6.79,0,0,1,333.71,10.22ZM333.16,17h10.65V53.78H333.16Z"/><path class="cls-1" d="M391.61,17V47.63q0,10.11-5.26,15T371,67.57a38.69,38.69,0,0,1-10.11-1.29A22.26,22.26,0,0,1,353,62.52l4.24-7.65a17.2,17.2,0,0,0,5.87,3,23.35,23.35,0,0,0,7.1,1.13q5.54,0,8.16-2.5T381,49V47.43Q376.79,52,369.35,52a19.59,19.59,0,0,1-9.25-2.21,17,17,0,0,1-6.66-6.25A17.47,17.47,0,0,1,351,34.25,17.5,17.5,0,0,1,353.44,25a17,17,0,0,1,6.66-6.24,19.48,19.48,0,0,1,9.25-2.22q8,0,12.16,5.26V17ZM378.4,40.77a8.45,8.45,0,0,0,2.7-6.52,8.45,8.45,0,0,0-2.7-6.52,9.82,9.82,0,0,0-6.93-2.49,9.94,9.94,0,0,0-7,2.49,8.4,8.4,0,0,0-2.73,6.52,8.4,8.4,0,0,0,2.73,6.52,9.94,9.94,0,0,0,7,2.49A9.82,9.82,0,0,0,378.4,40.77Z"/><path class="cls-1" d="M34.14,0,0,34.14,34.14,68.28,68.28,34.14Zm-26,36.46L5.79,34.14l.1-.1h4.63ZM11,39.36l5.1-5.11.2-.21h4.92l-7.77,7.77Zm5.35,5.34L27,34h4.62l-13,13Zm5.21,5.21L37.42,34h4.64L23.87,52.22Zm5.2,5.2L47.84,34h4.63l-.21.21L29.08,57.43ZM62.39,34.25,34.14,62.49,32,60.33,58.25,34h4.14l.1.1Z"/></g></g></svg>