<?xml version="1.0" standalone="no"?>
<!DOCTYPE svg PUBLIC "-//W3C//DTD SVG 20010904//EN"
 "http://www.w3.org/TR/2001/REC-SVG-20010904/DTD/svg10.dtd">
<svg version="1.0" xmlns="http://www.w3.org/2000/svg"
 width="700.000000pt" height="700.000000pt" viewBox="0 0 700.000000 700.000000"
 preserveAspectRatio="xMidYMid meet">
<metadata>
Created by potrace 1.11, written by Peter Selinger 2001-2013
</metadata>
<g transform="translate(0.000000,700.000000) scale(0.100000,-0.100000)"
fill="#000000" stroke="none">
<path d="M1747 5249 l-1747 -1749 1750 -1750 1750 -1750 1750 1750 1750 1750
-1750 1750 c-963 962 -1751 1750 -1753 1749 -1 0 -788 -788 -1750 -1750z m830
-2396 c-364 -365 -665 -663 -669 -663 -8 0 -221 216 -225 228 -2 4 244 253
545 553 l547 545 232 0 233 -1 -663 -662z m1723 657 c0 -3 -417 -423 -926
-934 l-926 -929 -114 114 c-63 63 -114 118 -114 124 0 6 64 74 142 152 79 78
443 442 810 810 l667 668 230 0 c127 0 231 -2 231 -5z m1077 3 c-24 -28 -2392
-2393 -2396 -2393 -4 0 -58 52 -121 115 l-114 115 29 30 c120 126 2126 2129
2134 2131 11 4 471 6 468 2z m1020 -6 c9 -10 -142 -162 -1639 -1657 l-1258
-1255 -110 110 -109 110 1347 1351 1347 1350 207 -1 c114 -1 211 -4 215 -8z
m-5438 -117 c-64 -66 -120 -120 -124 -120 -11 0 -235 222 -235 232 0 4 107 8
238 8 l238 0 -117 -120z m819 -277 l-398 -398 -125 125 -126 126 272 272 271
272 251 0 252 0 -397 -397z"/>
</g>
</svg>
